<svg preserveAspectRatio="none" width="100%" height="100%" overflow="visible" style="display: block;" viewBox="0 0 24 24" fill="none" xmlns="http://www.w3.org/2000/svg">
<g id="Alarm">
<g id="Vector">
<path fill-rule="evenodd" clip-rule="evenodd" d="M9.31579 17.3158C9.86807 17.3158 10.3158 17.7635 10.3158 18.3158C10.3158 19.246 11.0698 20 12 20C12.9302 20 13.6842 19.246 13.6842 18.3158C13.6842 17.7635 14.1319 17.3158 14.6842 17.3158C15.2365 17.3158 15.6842 17.7635 15.6842 18.3158C15.6842 20.3505 14.0347 22 12 22C9.96527 22 8.31579 20.3505 8.31579 18.3158C8.31579 17.7635 8.7635 17.3158 9.31579 17.3158Z" fill="var(--fill-0, #17191C)"/>
<path fill-rule="evenodd" clip-rule="evenodd" d="M7.95307 7.257C9.0371 6.24315 10.4939 5.68421 12 5.68421C13.5061 5.68421 14.9629 6.24315 16.0469 7.257C17.1332 8.27296 17.7572 9.66578 17.7572 11.1334C17.7572 12.9257 18.1673 14.1872 18.6427 15.0548L18.6517 15.0713C18.9631 15.6396 19.2077 16.0859 19.3721 16.407C19.4543 16.5676 19.5279 16.719 19.582 16.85C19.6089 16.915 19.6391 16.9946 19.6628 17.0799C19.6804 17.1433 19.7244 17.3094 19.7061 17.5113C19.6563 18.0613 19.17 18.4668 18.62 18.417C18.1595 18.3753 17.8004 18.0278 17.7248 17.593C17.7007 17.5374 17.6589 17.4494 17.5918 17.3184C17.4419 17.0256 17.2111 16.6041 16.8887 16.0158C16.2445 14.84 15.7572 13.2458 15.7572 11.1334C15.7572 10.2411 15.3788 9.37052 14.6808 8.71771C13.9805 8.06278 13.0173 7.68421 12 7.68421C10.9827 7.68421 10.0195 8.06278 9.3192 8.71771C8.6212 9.37052 8.24278 10.2411 8.24278 11.1334C8.24278 13.2458 7.75553 14.84 7.11128 16.0158C6.78894 16.6041 6.55812 17.0256 6.40821 17.3184C6.34113 17.4494 6.29926 17.5374 6.27518 17.593C6.19959 18.0278 5.84046 18.3753 5.38005 18.417C4.83001 18.4668 4.34373 18.0613 4.29391 17.5113C4.27562 17.3094 4.31957 17.1433 4.33721 17.0799C4.36092 16.9946 4.39115 16.915 4.41799 16.85C4.47207 16.719 4.54574 16.5676 4.62794 16.407C4.79231 16.0859 5.03685 15.6396 5.34822 15.0714L5.35732 15.0548C5.8327 14.1872 6.24278 12.9257 6.24278 11.1334C6.24278 9.66578 6.86677 8.27296 7.95307 7.257Z" fill="var(--fill-0, #17191C)"/>
<path fill-rule="evenodd" clip-rule="evenodd" d="M9.21053 3H14.7895V5H9.21053V3Z" fill="var(--fill-0, #17191C)"/>
<path fill-rule="evenodd" clip-rule="evenodd" d="M3.39474 16.8684H20.6053V18.8684H3.39474V16.8684Z" fill="var(--fill-0, #17191C)"/>
</g>
</g>
</svg>
