<svg preserveAspectRatio="none" width="100%" height="100%" overflow="visible" style="display: block;" viewBox="0 0 24 24" fill="none" xmlns="http://www.w3.org/2000/svg">
<g id="Autorenew">
<path id="Icon (Stroke)" fill-rule="evenodd" clip-rule="evenodd" d="M18.4303 5.63166C14.8775 2.12278 9.12248 2.12278 5.56973 5.63166C4.31078 6.87507 3.49493 8.39602 3.12683 9.99833L2.90294 10.9729L4.85216 11.4207L5.07606 10.4461C5.36112 9.20526 5.9926 8.02504 6.97514 7.05463C9.74889 4.31512 14.2511 4.31512 17.0249 7.05463C17.9682 7.98635 18.6252 8.69372 19.0811 9.22222H15.5V11.2222H22V4.77778H20V7.24906C19.5779 6.79046 19.0618 6.25536 18.4303 5.63166ZM19.1478 12.5793L18.9239 13.5539C18.6389 14.7947 18.0074 15.975 17.0249 16.9454C14.2511 19.6849 9.74889 19.6849 6.97514 16.9454C6.03177 16.0137 5.37479 15.3063 4.91895 14.7778H8.5V12.7778H2V19.2222H4V16.7509C4.42214 17.2095 4.93824 17.7446 5.56973 18.3683C9.12248 21.8772 14.8775 21.8772 18.4303 18.3683C19.6892 17.1249 20.5051 15.604 20.8732 14.0017L21.0971 13.0271L19.1478 12.5793Z" fill="var(--fill-0, #17191C)"/>
</g>
</svg>
