<svg preserveAspectRatio="none" width="100%" height="100%" overflow="visible" style="display: block;" viewBox="0 0 24 24" fill="none" xmlns="http://www.w3.org/2000/svg">
<g id="Cancel">
<path id="Icon (Stroke)" fill-rule="evenodd" clip-rule="evenodd" d="M12 20C16.4183 20 20 16.4183 20 12C20 7.58172 16.4183 4 12 4C7.58172 4 4 7.58172 4 12C4 16.4183 7.58172 20 12 20ZM22 12C22 17.5228 17.5228 22 12 22C6.47715 22 2 17.5228 2 12C2 6.47715 6.47715 2 12 2C17.5228 2 22 6.47715 22 12Z" fill="var(--fill-0, #17191C)"/>
<path id="Icon (Stroke)_2" fill-rule="evenodd" clip-rule="evenodd" d="M9 7.58579L12 10.5858L15 7.58579L16.4142 9L13.4142 12L16.4142 15L15 16.4142L12 13.4142L9 16.4142L7.58579 15L10.5858 12L7.58579 9L9 7.58579Z" fill="var(--fill-0, #17191C)"/>
</g>
</svg>
