<svg preserveAspectRatio="none" width="100%" height="100%" overflow="visible" style="display: block;" viewBox="0 0 17.0002 15" fill="none" xmlns="http://www.w3.org/2000/svg">
<path id="Icon (Stroke)" fill-rule="evenodd" clip-rule="evenodd" d="M4.28142 2C3.75561 2 3.40642 2.39671 3.40642 2.7931C3.40642 3.1895 3.75561 3.58621 4.28142 3.58621C4.80723 3.58621 5.15642 3.1895 5.15642 2.7931C5.15642 2.39671 4.80723 2 4.28142 2ZM1.40642 2.7931C1.40642 1.20889 2.73616 0 4.28142 0C5.82668 0 7.15642 1.20889 7.15642 2.7931C7.15642 4.37731 5.82668 5.58621 4.28142 5.58621C2.73616 5.58621 1.40642 4.37731 1.40642 2.7931ZM11.3125 2.75431L16.6913 7.89796C17.0905 8.27966 17.1046 8.91266 16.7229 9.31182C16.3412 9.71097 15.7082 9.72512 15.3091 9.34342L11.3125 5.52162L1.69115 14.7227C1.292 15.1044 0.658996 15.0903 0.277287 14.6911C-0.104423 14.292 -0.0902892 13.659 0.308855 13.2773L11.3125 2.75431Z" fill="var(--fill-0, #17191C)"/>
</svg>
