<svg preserveAspectRatio="none" width="100%" height="100%" overflow="visible" style="display: block;" viewBox="0 0 24 24" fill="none" xmlns="http://www.w3.org/2000/svg">
<g id="Favorite">
<path id="Icon (Stroke)" fill-rule="evenodd" clip-rule="evenodd" d="M11.9941 5.29101C10.0613 3.72196 7.26647 3.42998 5.08128 5.26207C2.66959 7.28405 2.31166 10.7068 4.22743 13.1258C4.93716 14.022 6.31153 15.3567 7.61899 16.5677C8.9459 17.7966 10.2693 18.9575 10.9217 19.5245C10.9261 19.5283 10.9305 19.5322 10.9351 19.5361C10.9951 19.5884 11.0774 19.6599 11.1573 19.719C11.2555 19.7915 11.402 19.8858 11.5992 19.9435C11.8566 20.0188 12.1325 20.0188 12.3898 19.9435C12.587 19.8858 12.7336 19.7915 12.8317 19.719C12.9117 19.6599 12.9939 19.5884 13.0539 19.5362C13.0585 19.5322 13.063 19.5283 13.0673 19.5245C13.7197 18.9575 15.0431 17.7966 16.37 16.5677C17.6775 15.3567 19.0519 14.022 19.7616 13.1258C21.6683 10.7183 21.3675 7.26806 18.8973 5.25343C16.6904 3.45352 13.9244 3.72155 11.9941 5.29101ZM11.2407 7.33373C9.93759 5.83881 7.88444 5.5218 6.36623 6.79468C4.76984 8.13311 4.56349 10.3288 5.79529 11.8842C6.39405 12.6402 7.65391 13.8739 8.97802 15.1003C10.1375 16.1742 11.2976 17.1983 11.9945 17.8066C12.6914 17.1983 13.8516 16.1742 15.011 15.1003C16.3351 13.8739 17.595 12.6402 18.1938 11.8842C19.4346 10.3173 19.24 8.11376 17.6333 6.80332C16.0702 5.52855 14.044 5.84734 12.7483 7.33373L11.9945 8.19848L11.2407 7.33373Z" fill="var(--fill-0, #17191C)"/>
</g>
</svg>
