<svg preserveAspectRatio="none" width="100%" height="100%" overflow="visible" style="display: block;" viewBox="0 0 24 24" fill="none" xmlns="http://www.w3.org/2000/svg">
<g id="Refresh">
<path id="Icon (Stroke)" fill-rule="evenodd" clip-rule="evenodd" d="M3 11.5C3 6.79573 6.85082 3 11.5789 3C13.9453 3 16.0912 3.95071 17.6436 5.48798C18.0909 5.93092 18.5632 6.45868 19 6.97292V4.66667H21V10.8333H14.7895V8.83333H17.9468C17.4102 8.17738 16.7893 7.45674 16.2363 6.90909C15.0453 5.72974 13.4002 5 11.5789 5C7.9356 5 5 7.92 5 11.5C5 15.08 7.9356 18 11.5789 18C14.4292 18 16.8513 16.2103 17.7666 13.7142L18.1109 12.7754L19.9886 13.4639L19.6443 14.4028C18.4457 17.6714 15.2843 20 11.5789 20C6.85082 20 3 16.2043 3 11.5Z" fill="var(--fill-0, #17191C)"/>
</g>
</svg>
