<svg preserveAspectRatio="none" width="100%" height="100%" overflow="visible" style="display: block;" viewBox="0 0 17.7071 17.7071" fill="none" xmlns="http://www.w3.org/2000/svg">
<path id="Vector (Stroke)" fill-rule="evenodd" clip-rule="evenodd" d="M7.49997 2C4.46242 2 2 4.46242 2 7.49997C2 10.5375 4.46242 12.9999 7.49997 12.9999C10.5375 12.9999 12.9999 10.5375 12.9999 7.49997C12.9999 4.46242 10.5375 2 7.49997 2ZM0 7.49997C0 3.35785 3.35785 0 7.49997 0C11.6421 0 14.9999 3.35785 14.9999 7.49997C14.9999 9.2105 14.4273 10.7873 13.4633 12.0491L17.7071 16.2929L16.2929 17.7071L12.0491 13.4633C10.7873 14.4273 9.2105 14.9999 7.49997 14.9999C3.35785 14.9999 0 11.6421 0 7.49997Z" fill="var(--fill-0, #17191C)"/>
</svg>
