<svg preserveAspectRatio="none" width="100%" height="100%" overflow="visible" style="display: block;" viewBox="0 0 24 24" fill="none" xmlns="http://www.w3.org/2000/svg">
<g id="Settings">
<path id="Vector (Stroke)" fill-rule="evenodd" clip-rule="evenodd" d="M9.041 2H14.959L15.463 4.54983C15.9409 4.76412 16.3948 5.02069 16.8192 5.31682L19.3106 4.47236L22.2869 9.53518L20.2858 11.2446C20.3121 11.4999 20.3259 11.7509 20.3259 12C20.3259 12.2491 20.3121 12.5001 20.2858 12.7554L22.2869 14.4648L19.3106 19.5276L16.8192 18.6832C16.3948 18.9793 15.9409 19.2359 15.463 19.4502L14.959 22H9.041L8.53697 19.4502C8.05912 19.2359 7.60516 18.9793 7.18081 18.6832L4.68945 19.5276L1.7131 14.4648L3.71415 12.7554C3.68794 12.5001 3.67409 12.2491 3.67409 12C3.67409 11.7509 3.68794 11.4999 3.71415 11.2446L1.7131 9.53519L4.68945 4.47236L7.18081 5.31682C7.60516 5.02069 8.05912 4.76412 8.53697 4.54983L9.041 2ZM10.6844 4L10.2862 6.0142L9.76129 6.20876C9.10512 6.45197 8.50733 6.79108 7.98672 7.21121L7.55865 7.55666L5.58877 6.88896L4.2869 9.10349L5.85668 10.4445L5.76437 11.0016C5.7032 11.3707 5.67409 11.6973 5.67409 12C5.67409 12.3027 5.7032 12.6293 5.76437 12.9984L5.85668 13.5555L4.2869 14.8965L5.58877 17.111L7.55865 16.4433L7.98672 16.7888C8.50733 17.2089 9.10512 17.548 9.76129 17.7912L10.2862 17.9858L10.6844 20H13.3156L13.7138 17.9858L14.2387 17.7912C14.8949 17.548 15.4927 17.2089 16.0133 16.7888L16.4414 16.4433L18.4112 17.111L19.7131 14.8965L18.1433 13.5555L18.2356 12.9984C18.2968 12.6294 18.3259 12.3027 18.3259 12C18.3259 11.6973 18.2968 11.3706 18.2356 11.0016L18.1433 10.4445L19.7131 9.10349L18.4112 6.88896L16.4414 7.55666L16.0133 7.21121C15.4927 6.79108 14.8949 6.45197 14.2387 6.20876L13.7138 6.0142L13.3156 4H10.6844Z" fill="var(--fill-0, #17191C)"/>
<path id="Icon (Stroke)" fill-rule="evenodd" clip-rule="evenodd" d="M12 10C10.8954 10 10 10.8954 10 12C10 13.1046 10.8954 14 12 14C13.1046 14 14 13.1046 14 12C14 10.8954 13.1046 10 12 10ZM8 12C8 9.79086 9.79086 8 12 8C14.2091 8 16 9.79086 16 12C16 14.2091 14.2091 16 12 16C9.79086 16 8 14.2091 8 12Z" fill="var(--fill-0, #17191C)"/>
</g>
</svg>
