<svg preserveAspectRatio="none" width="100%" height="100%" overflow="visible" style="display: block;" viewBox="0 0 24 24" fill="none" xmlns="http://www.w3.org/2000/svg">
<g id="Share">
<path id="Icon (Stroke)" fill-rule="evenodd" clip-rule="evenodd" d="M15.6667 5C14.9567 5 14.3333 5.60006 14.3333 6.4C14.3333 6.64469 14.3917 6.87067 14.4929 7.0665C14.4986 7.07533 14.5042 7.08428 14.5096 7.09335C14.5234 7.11628 14.5361 7.13954 14.5478 7.16308C14.7901 7.55232 15.2105 7.8 15.6667 7.8C16.3767 7.8 17 7.19994 17 6.4C17 5.60006 16.3767 5 15.6667 5ZM13.421 8.91308C14.0097 9.46199 14.7944 9.8 15.6667 9.8C17.534 9.8 19 8.25103 19 6.4C19 4.54897 17.534 3 15.6667 3C13.7993 3 12.3333 4.54897 12.3333 6.4C12.3333 6.6676 12.364 6.92889 12.422 7.1801L8.57895 9.48692C7.99034 8.93801 7.20562 8.6 6.33333 8.6C4.46602 8.6 3 10.149 3 12C3 13.851 4.46602 15.4 6.33333 15.4C7.20583 15.4 7.99072 15.0618 8.57938 14.5127L12.4229 16.8164C12.3643 17.0687 12.3333 17.3311 12.3333 17.6C12.3333 19.451 13.7993 21 15.6667 21C17.534 21 19 19.451 19 17.6C19 15.749 17.534 14.2 15.6667 14.2C14.7957 14.2 14.012 14.537 13.4237 15.0845L9.57809 12.7795C9.63607 12.5285 9.66667 12.2674 9.66667 12C9.66667 11.7324 9.63603 11.4711 9.57796 11.2199L13.421 8.91308ZM7.45215 11.2369C7.46387 11.2605 7.47661 11.2837 7.49038 11.3067C7.49582 11.3157 7.50139 11.3247 7.50707 11.3335C7.60835 11.5293 7.66667 11.7553 7.66667 12C7.66667 12.2447 7.60836 12.4706 7.5071 12.6664C7.50129 12.6755 7.49561 12.6846 7.49005 12.6939C7.47641 12.7167 7.46378 12.7397 7.45215 12.7631C7.20987 13.1523 6.78949 13.4 6.33333 13.4C5.62332 13.4 5 12.7999 5 12C5 11.2001 5.62332 10.6 6.33333 10.6C6.78949 10.6 7.20986 10.8477 7.45215 11.2369ZM14.4719 16.9759C14.488 16.9534 14.5033 16.9302 14.5177 16.9061C14.5397 16.8694 14.5591 16.8318 14.5759 16.7936C14.8218 16.4294 15.2277 16.2 15.6667 16.2C16.3767 16.2 17 16.8001 17 17.6C17 18.3999 16.3767 19 15.6667 19C14.9567 19 14.3333 18.3999 14.3333 17.6C14.3333 17.3728 14.3836 17.1617 14.4719 16.9759Z" fill="var(--fill-0, #17191C)"/>
</g>
</svg>
