<svg preserveAspectRatio="none" width="100%" height="100%" overflow="visible" style="display: block;" viewBox="0 0 24 24" fill="none" xmlns="http://www.w3.org/2000/svg">
<g id="Toggle Off">
<path id="Rectangle 641 (Stroke)" fill-rule="evenodd" clip-rule="evenodd" d="M16 8H8C5.79086 8 4 9.79086 4 12C4 14.2091 5.79086 16 8 16H16C18.2091 16 20 14.2091 20 12C20 9.79086 18.2091 8 16 8ZM8 6C4.68629 6 2 8.68629 2 12C2 15.3137 4.68629 18 8 18H16C19.3137 18 22 15.3137 22 12C22 8.68629 19.3137 6 16 6H8Z" fill="var(--fill-0, #17191C)"/>
<path id="Icon (Stroke)" fill-rule="evenodd" clip-rule="evenodd" d="M8 13C8.55228 13 9 12.5523 9 12C9 11.4477 8.55228 11 8 11C7.44772 11 7 11.4477 7 12C7 12.5523 7.44772 13 8 13ZM11 12C11 13.6569 9.65685 15 8 15C6.34315 15 5 13.6569 5 12C5 10.3431 6.34315 9 8 9C9.65685 9 11 10.3431 11 12Z" fill="var(--fill-0, #17191C)"/>
</g>
</svg>
