<svg preserveAspectRatio="none" width="100%" height="100%" overflow="visible" style="display: block;" viewBox="0 0 20 12" fill="none" xmlns="http://www.w3.org/2000/svg">
<g id="Group 163">
<path id="Rectangle 641 (Stroke)" fill-rule="evenodd" clip-rule="evenodd" d="M14 2H6C3.79086 2 2 3.79086 2 6C2 8.20914 3.79086 10 6 10H14C16.2091 10 18 8.20914 18 6C18 3.79086 16.2091 2 14 2ZM6 0C2.68629 0 0 2.68629 0 6C0 9.31371 2.68629 12 6 12H14C17.3137 12 20 9.31371 20 6C20 2.68629 17.3137 0 14 0H6Z" fill="var(--fill-0, #17191C)"/>
<path id="Icon (Stroke)" fill-rule="evenodd" clip-rule="evenodd" d="M14 7C14.5523 7 15 6.55228 15 6C15 5.44772 14.5523 5 14 5C13.4477 5 13 5.44772 13 6C13 6.55228 13.4477 7 14 7ZM17 6C17 7.65685 15.6569 9 14 9C12.3431 9 11 7.65685 11 6C11 4.34315 12.3431 3 14 3C15.6569 3 17 4.34315 17 6Z" fill="var(--fill-0, #17191C)"/>
</g>
</svg>
