<svg preserveAspectRatio="none" width="100%" height="100%" overflow="visible" style="display: block;" viewBox="0 0 16.9449 17.4136" fill="none" xmlns="http://www.w3.org/2000/svg">
<g id="Group 167">
<path id="Icon (Stroke)" fill-rule="evenodd" clip-rule="evenodd" d="M8.47243 2C6.58816 2 5.06066 3.5275 5.06066 5.41176C5.06066 7.29603 6.58816 8.82353 8.47243 8.82353C10.3567 8.82353 11.8842 7.29603 11.8842 5.41176C11.8842 3.5275 10.3567 2 8.47243 2ZM3.06066 5.41176C3.06066 2.42293 5.48359 0 8.47243 0C11.4613 0 13.8842 2.42293 13.8842 5.41176C13.8842 8.4006 11.4613 10.8235 8.47243 10.8235C5.48359 10.8235 3.06066 8.4006 3.06066 5.41176Z" fill="var(--fill-0, #17191C)"/>
<path id="Icon (Stroke)_2" fill-rule="evenodd" clip-rule="evenodd" d="M4.96641 14.5499C4.00187 14.9788 3.11252 15.6558 2.1412 16.686L1.4552 17.4136L0 16.0416L0.686003 15.314C1.77568 14.1583 2.87471 13.2912 4.15383 12.7224C5.43525 12.1526 6.83087 11.9118 8.47243 11.9118C10.114 11.9118 11.5096 12.1526 12.791 12.7224C14.0701 13.2912 15.1692 14.1583 16.2588 15.314L16.9449 16.0416L15.4897 17.4136L14.8036 16.686C13.8323 15.6558 12.943 14.9788 11.9784 14.5499C11.0162 14.122 9.91291 13.9118 8.47243 13.9118C7.03194 13.9118 5.92864 14.122 4.96641 14.5499Z" fill="var(--fill-0, #17191C)"/>
</g>
</svg>
