<svg preserveAspectRatio="none" width="100%" height="100%" overflow="visible" style="display: block;" viewBox="0 0 16.7105 18.5" fill="none" xmlns="http://www.w3.org/2000/svg">
<g id="Group 160">
<path id="Icon (Stroke)" fill-rule="evenodd" clip-rule="evenodd" d="M5.67105 14.3158C6.08527 14.3158 6.42105 14.6516 6.42105 15.0658C6.42105 16.134 7.28703 17 8.35526 17C9.4235 17 10.2895 16.134 10.2895 15.0658C10.2895 14.6516 10.6253 14.3158 11.0395 14.3158C11.4537 14.3158 11.7895 14.6516 11.7895 15.0658C11.7895 16.9625 10.2519 18.5 8.35526 18.5C6.4586 18.5 4.92105 16.9625 4.92105 15.0658C4.92105 14.6516 5.25684 14.3158 5.67105 14.3158Z" fill="var(--fill-0, #17191C)"/>
<path id="Icon (Stroke)_2" fill-rule="evenodd" clip-rule="evenodd" d="M4.4791 4.18959C5.51516 3.22061 6.91025 2.68421 8.35526 2.68421C9.80027 2.68421 11.1954 3.22061 12.2314 4.18959C13.2692 5.16016 13.8625 6.48769 13.8625 7.88342C13.8625 9.71575 14.2822 11.0188 14.7787 11.9249L14.7857 11.9377C15.0988 12.5092 15.342 12.953 15.5048 13.2709C15.5862 13.4299 15.6561 13.574 15.7062 13.6954C15.7311 13.7557 15.7572 13.8251 15.7772 13.8969C15.7926 13.9523 15.8265 14.0829 15.8124 14.2387C15.775 14.6512 15.4103 14.9554 14.9978 14.918C14.6435 14.8859 14.3692 14.6124 14.3224 14.2745C14.3216 14.2723 14.3206 14.27 14.3196 14.2676C14.2935 14.2043 14.2461 14.104 14.1696 13.9545C14.0177 13.6577 13.7847 13.2325 13.4632 12.6457C12.8401 11.5084 12.3625 9.9558 12.3625 7.88342C12.3625 6.91915 11.9534 5.98333 11.2068 5.28512C10.4586 4.58533 9.43364 4.18421 8.35526 4.18421C7.27688 4.18421 6.25194 4.58533 5.5037 5.28512C4.75716 5.98333 4.34804 6.91915 4.34804 7.88342C4.34804 9.9558 3.87044 11.5084 3.2473 12.6457C2.92579 13.2325 2.69285 13.6577 2.54094 13.9545C2.4644 14.104 2.41704 14.2043 2.39091 14.2676C2.38991 14.27 2.38897 14.2723 2.3881 14.2745C2.34137 14.6124 2.06704 14.8859 1.71276 14.918C1.30023 14.9554 0.935521 14.6512 0.898154 14.2387C0.884044 14.0829 0.917907 13.9523 0.933327 13.8969C0.953301 13.8251 0.979454 13.7557 1.00435 13.6954C1.05443 13.574 1.12434 13.4299 1.20574 13.2709C1.36848 12.953 1.61167 12.5092 1.92481 11.9377L1.93183 11.9249C2.42832 11.0188 2.84804 9.71574 2.84804 7.88342C2.84804 6.48769 3.44134 5.16016 4.4791 4.18959Z" fill="var(--fill-0, #17191C)"/>
<path id="Vector 14 (Stroke)" fill-rule="evenodd" clip-rule="evenodd" d="M5.81579 0H10.8947V1.5H5.81579V0Z" fill="var(--fill-0, #17191C)"/>
<path id="Vector 13 (Stroke)" fill-rule="evenodd" clip-rule="evenodd" d="M0 13.8684H16.7105V15.3684H0V13.8684Z" fill="var(--fill-0, #17191C)"/>
</g>
</svg>
