<svg preserveAspectRatio="none" width="100%" height="100%" overflow="visible" style="display: block;" viewBox="0 0 24 24" fill="none" xmlns="http://www.w3.org/2000/svg">
<g id="Autorenew">
<path id="Icon (Stroke)" fill-rule="evenodd" clip-rule="evenodd" d="M18.2546 5.80953C14.7992 2.39682 9.20078 2.39682 5.74541 5.80953C4.52101 7.01882 3.7282 8.49717 3.37049 10.0543L3.20256 10.7853L4.66448 11.1211L4.83241 10.3901C5.12785 9.1041 5.78237 7.88129 6.79946 6.87676C9.67059 4.04108 14.3294 4.04108 17.2005 6.87676C18.4148 8.07602 19.1608 8.90934 19.6164 9.47222H15.75V10.9722H21.75V5.02778H20.25V7.89998C19.7673 7.35149 19.121 6.66524 18.2546 5.80953ZM19.3355 12.8789L19.1676 13.6099C18.8722 14.8959 18.2176 16.1187 17.2005 17.1232C14.3294 19.9589 9.67059 19.9589 6.79946 17.1232C5.58521 15.924 4.83921 15.0907 4.38357 14.5278H8.25V13.0278H2.25V18.9722H3.75V16.1C4.23273 16.6485 4.879 17.3348 5.74541 18.1905C9.20078 21.6032 14.7992 21.6032 18.2546 18.1905C19.479 16.9812 20.2718 15.5028 20.6295 13.9457L20.7974 13.2147L19.3355 12.8789Z" fill="var(--fill-0, #17191C)"/>
</g>
</svg>
