<svg preserveAspectRatio="none" width="100%" height="100%" overflow="visible" style="display: block;" viewBox="0 0 24 24" fill="none" xmlns="http://www.w3.org/2000/svg">
<g id="Check Circle">
<path id="Icon (Stroke)" fill-rule="evenodd" clip-rule="evenodd" d="M12 20.5C16.6944 20.5 20.5 16.6944 20.5 12C20.5 7.30558 16.6944 3.5 12 3.5C7.30558 3.5 3.5 7.30558 3.5 12C3.5 16.6944 7.30558 20.5 12 20.5ZM22 12C22 17.5228 17.5228 22 12 22C6.47715 22 2 17.5228 2 12C2 6.47715 6.47715 2 12 2C17.5228 2 22 6.47715 22 12Z" fill="var(--fill-0, #17191C)"/>
<path id="Icon (Stroke)_2" fill-rule="evenodd" clip-rule="evenodd" d="M17.0588 8.93772L10.6667 16.1289L6.94117 11.9377L8.06228 10.9412L10.6667 13.8711L15.9377 7.94117L17.0588 8.93772Z" fill="var(--fill-0, #17191C)"/>
</g>
</svg>
