<svg preserveAspectRatio="none" width="100%" height="100%" overflow="visible" style="display: block;" viewBox="0 0 24 24" fill="none" xmlns="http://www.w3.org/2000/svg">
<g id="Favorite">
<path id="Icon (Stroke)" fill-rule="evenodd" clip-rule="evenodd" d="M11.9942 5.61757C10.138 3.99701 7.38038 3.66072 5.2419 5.45364C2.93212 7.39018 2.59314 10.6596 4.42341 12.9706C5.11927 13.8493 6.47933 15.1714 7.78887 16.3842C9.113 17.6106 10.4342 18.7696 11.0857 19.3358L11.0978 19.3464C11.1595 19.3999 11.2344 19.4651 11.3059 19.518C11.3912 19.581 11.511 19.6572 11.6695 19.7036C11.881 19.7655 12.1081 19.7655 12.3196 19.7036C12.4781 19.6572 12.5978 19.581 12.6831 19.518C12.7546 19.4651 12.8296 19.4 12.8912 19.3464L12.9033 19.3358C13.5549 18.7696 14.876 17.6106 16.2002 16.3842C17.5097 15.1714 18.8698 13.8493 19.5656 12.9706C21.3891 10.6682 21.1016 7.37377 18.7393 5.44716C16.5764 3.68313 13.8485 3.99638 11.9942 5.61757ZM11.4292 7.16946C10.0519 5.58954 7.84528 5.22839 6.20561 6.6031C4.50731 8.02698 4.28201 10.376 5.59931 12.0394C6.21194 12.8129 7.48611 14.0593 8.80814 15.2837C10.0668 16.4495 11.3257 17.5562 11.9945 18.1383C12.6633 17.5562 13.9223 16.4495 15.1809 15.2837C16.5029 14.0593 17.7771 12.8129 18.3897 12.0394C19.7138 10.3675 19.506 8.00804 17.7913 6.60958C16.1094 5.23787 13.9315 5.59594 12.5599 7.16946L11.9945 7.81802L11.4292 7.16946Z" fill="var(--fill-0, #17191C)"/>
</g>
</svg>
