<svg preserveAspectRatio="none" width="100%" height="100%" overflow="visible" style="display: block;" viewBox="0 0 24 24" fill="none" xmlns="http://www.w3.org/2000/svg">
<g id="Refresh">
<path id="Icon (Stroke)" fill-rule="evenodd" clip-rule="evenodd" d="M3.25 11.5C3.25 6.93627 6.98642 3.25 11.5789 3.25C13.8772 3.25 15.9605 4.17309 17.4677 5.66562C18.0631 6.2553 18.7065 7.0006 19.25 7.66264V4.91667H20.75V10.5833H15.0395V9.08333H18.4704C18.4471 9.05418 18.4235 9.02473 18.3996 8.995C17.8104 8.26144 17.0668 7.37972 16.4122 6.73145C15.1761 5.50736 13.4683 4.75 11.5789 4.75C7.8 4.75 4.75 7.77946 4.75 11.5C4.75 15.2205 7.8 18.25 11.5789 18.25C14.5361 18.25 17.0506 16.393 18.0013 13.8003L18.2595 13.0962L19.6678 13.6126L19.4096 14.3167C18.2464 17.4888 15.1774 19.75 11.5789 19.75C6.98642 19.75 3.25 16.0637 3.25 11.5Z" fill="var(--fill-0, #17191C)"/>
</g>
</svg>
