<svg preserveAspectRatio="none" width="100%" height="100%" overflow="visible" style="display: block;" viewBox="0 0 17.2803 17.2803" fill="none" xmlns="http://www.w3.org/2000/svg">
<path id="Vector (Stroke)" fill-rule="evenodd" clip-rule="evenodd" d="M7.24997 1.5C4.07435 1.5 1.5 4.07435 1.5 7.24997C1.5 10.4256 4.07435 12.9999 7.24997 12.9999C10.4256 12.9999 12.9999 10.4256 12.9999 7.24997C12.9999 4.07435 10.4256 1.5 7.24997 1.5ZM0 7.24997C0 3.24592 3.24592 0 7.24997 0C11.254 0 14.4999 3.24592 14.4999 7.24997C14.4999 8.98185 13.8927 10.5719 12.8795 11.8188L17.2803 16.2197L16.2197 17.2803L11.8188 12.8795C10.5719 13.8927 8.98185 14.4999 7.24997 14.4999C3.24592 14.4999 0 11.254 0 7.24997Z" fill="var(--fill-0, #17191C)"/>
</svg>
