<svg preserveAspectRatio="none" width="100%" height="100%" overflow="visible" style="display: block;" viewBox="0 0 24 24" fill="none" xmlns="http://www.w3.org/2000/svg">
<g id="Settings">
<path id="Vector (Stroke)" fill-rule="evenodd" clip-rule="evenodd" d="M9.24642 2.25H14.7536L15.2431 4.72627C15.7892 4.96109 16.304 5.25197 16.7786 5.59456L19.1981 4.77444L21.9652 9.48122L20.0228 11.1405C20.0575 11.4334 20.0759 11.7185 20.0759 12C20.0759 12.2815 20.0575 12.5666 20.0228 12.8595L21.9652 14.5188L19.1981 19.2256L16.7786 18.4054C16.304 18.748 15.7892 19.0389 15.2431 19.2737L14.7536 21.75H9.24642L8.75693 19.2737C8.21075 19.0389 7.69601 18.748 7.22142 18.4054L4.80186 19.2256L2.03483 14.5188L3.9772 12.8595C3.94246 12.5666 3.92409 12.2815 3.92409 12C3.92409 11.7185 3.94246 11.4334 3.9772 11.1405L2.03483 9.48122L4.80186 4.77444L7.22142 5.59456C7.69601 5.25197 8.21075 4.96109 8.75693 4.72627L9.24642 2.25ZM10.4789 3.75L10.0681 5.82842L9.67441 5.97434C8.9936 6.22668 8.37199 6.57904 7.82971 7.01666L7.50866 7.27575L5.47636 6.58689L3.96517 9.15745L5.58697 10.5429L5.51773 10.9607C5.45477 11.3406 5.42409 11.6811 5.42409 12C5.42409 12.3189 5.45477 12.6594 5.51773 13.0393L5.58697 13.4571L3.96517 14.8426L5.47636 17.4131L7.50866 16.7242L7.82972 16.9833C8.37199 17.421 8.9936 17.7733 9.67441 18.0257L10.0681 18.1716L10.4789 20.25H13.5211L13.9319 18.1716L14.3256 18.0257C15.0064 17.7733 15.628 17.421 16.1703 16.9833L16.4913 16.7242L18.5236 17.4131L20.0348 14.8426L18.413 13.4571L18.4823 13.0393C18.5452 12.6594 18.5759 12.3189 18.5759 12C18.5759 11.6811 18.5452 11.3406 18.4823 10.9607L18.413 10.5429L20.0348 9.15745L18.5236 6.58689L16.4913 7.27575L16.1703 7.01666C15.628 6.57904 15.0064 6.22668 14.3256 5.97434L13.9319 5.82842L13.5211 3.75H10.4789Z" fill="var(--fill-0, #17191C)"/>
<path id="Icon (Stroke)" fill-rule="evenodd" clip-rule="evenodd" d="M12 9.75C10.7574 9.75 9.75 10.7574 9.75 12C9.75 13.2426 10.7574 14.25 12 14.25C13.2426 14.25 14.25 13.2426 14.25 12C14.25 10.7574 13.2426 9.75 12 9.75ZM8.25 12C8.25 9.92893 9.92893 8.25 12 8.25C14.0711 8.25 15.75 9.92893 15.75 12C15.75 14.0711 14.0711 15.75 12 15.75C9.92893 15.75 8.25 14.0711 8.25 12Z" fill="var(--fill-0, #17191C)"/>
</g>
</svg>
