<svg preserveAspectRatio="none" width="100%" height="100%" overflow="visible" style="display: block;" viewBox="0 0 24 24" fill="none" xmlns="http://www.w3.org/2000/svg">
<g id="Share">
<path id="Icon (Stroke)" fill-rule="evenodd" clip-rule="evenodd" d="M15.6667 4.75C14.812 4.75 14.0833 5.46867 14.0833 6.4C14.0833 6.69068 14.1543 6.96065 14.278 7.19452C14.2839 7.20351 14.2897 7.21268 14.2953 7.22201C14.3071 7.2418 14.318 7.26191 14.3279 7.2823C14.6119 7.7482 15.1128 8.05 15.6667 8.05C16.5213 8.05 17.25 7.33133 17.25 6.4C17.25 5.46867 16.5213 4.75 15.6667 4.75ZM13.4588 8.59884C14.0157 9.18364 14.7948 9.55 15.6667 9.55C17.3893 9.55 18.75 8.11964 18.75 6.4C18.75 4.68036 17.3893 3.25 15.6667 3.25C13.944 3.25 12.5833 4.68036 12.5833 6.4C12.5833 6.71112 12.6279 7.01278 12.711 7.29821L8.5412 9.80116C7.98426 9.21636 7.20515 8.85 6.33333 8.85C4.61068 8.85 3.25 10.2804 3.25 12C3.25 13.7196 4.61068 15.15 6.33333 15.15C7.20532 15.15 7.98455 14.7835 8.54151 14.1985L12.7121 16.6982C12.6282 16.9847 12.5833 17.2876 12.5833 17.6C12.5833 19.3196 13.944 20.75 15.6667 20.75C17.3893 20.75 18.75 19.3196 18.75 17.6C18.75 15.8804 17.3893 14.45 15.6667 14.45C14.7962 14.45 14.0181 14.8153 13.4613 15.3985L9.28908 12.8978C9.37217 12.6125 9.41667 12.311 9.41667 12C9.41667 11.6889 9.37213 11.3872 9.28896 11.1018L13.4588 8.59884ZM7.67214 11.1177C7.682 11.1381 7.69285 11.1582 7.70473 11.178C7.71033 11.1873 7.7161 11.1965 7.72204 11.2055C7.84568 11.4394 7.91667 11.7093 7.91667 12C7.91667 12.2907 7.84568 12.5606 7.72204 12.7945C7.71602 12.8036 7.71016 12.813 7.70448 12.8224C7.6927 12.8421 7.68192 12.8621 7.67213 12.8823C7.38811 13.3482 6.88718 13.65 6.33333 13.65C5.47866 13.65 4.75 12.9313 4.75 12C4.75 11.0687 5.47866 10.35 6.33333 10.35C6.88719 10.35 7.38813 10.6518 7.67214 11.1177ZM14.2576 16.8453C14.2739 16.8238 14.2891 16.8012 14.3033 16.7776C14.3232 16.7444 14.3402 16.7103 14.3545 16.6755C14.6425 16.2337 15.1297 15.95 15.6667 15.95C16.5213 15.95 17.25 16.6687 17.25 17.6C17.25 18.5313 16.5213 19.25 15.6667 19.25C14.812 19.25 14.0833 18.5313 14.0833 17.6C14.0833 17.3257 14.1466 17.0698 14.2576 16.8453Z" fill="var(--fill-0, #17191C)"/>
</g>
</svg>
