<svg preserveAspectRatio="none" width="100%" height="100%" overflow="visible" style="display: block;" viewBox="0 0 20 12" fill="none" xmlns="http://www.w3.org/2000/svg">
<g id="Group 163">
<path id="Rectangle 641 (Stroke)" fill-rule="evenodd" clip-rule="evenodd" d="M14 1.5H6C3.51472 1.5 1.5 3.51472 1.5 6C1.5 8.48528 3.51472 10.5 6 10.5H14C16.4853 10.5 18.5 8.48528 18.5 6C18.5 3.51472 16.4853 1.5 14 1.5ZM6 0C2.68629 0 0 2.68629 0 6C0 9.31371 2.68629 12 6 12H14C17.3137 12 20 9.31371 20 6C20 2.68629 17.3137 0 14 0H6Z" fill="var(--fill-0, #17191C)"/>
<path id="Icon (Stroke)" fill-rule="evenodd" clip-rule="evenodd" d="M14 7.5C14.8284 7.5 15.5 6.82843 15.5 6C15.5 5.17157 14.8284 4.5 14 4.5C13.1716 4.5 12.5 5.17157 12.5 6C12.5 6.82843 13.1716 7.5 14 7.5ZM17 6C17 7.65685 15.6569 9 14 9C12.3431 9 11 7.65685 11 6C11 4.34315 12.3431 3 14 3C15.6569 3 17 4.34315 17 6Z" fill="var(--fill-0, #17191C)"/>
</g>
</svg>
