<svg preserveAspectRatio="none" width="100%" height="100%" overflow="visible" style="display: block;" viewBox="0 0 20 12" fill="none" xmlns="http://www.w3.org/2000/svg">
<g id="Group 163">
<path id="Rectangle 641 (Stroke)" fill-rule="evenodd" clip-rule="evenodd" d="M14 1.5H6C3.51472 1.5 1.5 3.51472 1.5 6C1.5 8.48528 3.51472 10.5 6 10.5H14C16.4853 10.5 18.5 8.48528 18.5 6C18.5 3.51472 16.4853 1.5 14 1.5ZM6 0C2.68629 0 0 2.68629 0 6C0 9.31371 2.68629 12 6 12H14C17.3137 12 20 9.31371 20 6C20 2.68629 17.3137 0 14 0H6Z" fill="var(--fill-0, #17191C)"/>
<path id="Icon (Stroke)" fill-rule="evenodd" clip-rule="evenodd" d="M6 7.5C6.82843 7.5 7.5 6.82843 7.5 6C7.5 5.17157 6.82843 4.5 6 4.5C5.17157 4.5 4.5 5.17157 4.5 6C4.5 6.82843 5.17157 7.5 6 7.5ZM9 6C9 7.65685 7.65685 9 6 9C4.34315 9 3 7.65685 3 6C3 4.34315 4.34315 3 6 3C7.65685 3 9 4.34315 9 6Z" fill="var(--fill-0, #17191C)"/>
</g>
</svg>
