<svg preserveAspectRatio="none" width="100%" height="100%" overflow="visible" style="display: block;" viewBox="0 0 16.2381 16.8102" fill="none" xmlns="http://www.w3.org/2000/svg">
<g id="Group 167">
<path id="Icon (Stroke)" fill-rule="evenodd" clip-rule="evenodd" d="M8.11902 1.5C6.09669 1.5 4.45726 3.13943 4.45726 5.16176C4.45726 7.1841 6.09669 8.82353 8.11902 8.82353C10.1414 8.82353 11.7808 7.1841 11.7808 5.16176C11.7808 3.13943 10.1414 1.5 8.11902 1.5ZM2.95726 5.16176C2.95726 2.311 5.26826 0 8.11902 0C10.9698 0 13.2808 2.311 13.2808 5.16176C13.2808 8.01253 10.9698 10.3235 8.11902 10.3235C5.26826 10.3235 2.95726 8.01253 2.95726 5.16176Z" fill="var(--fill-0, #17191C)"/>
<path id="Icon (Stroke)_2" fill-rule="evenodd" clip-rule="evenodd" d="M4.51144 14.0715C3.50758 14.5178 2.59201 15.2186 1.6059 16.2645L1.0914 16.8102L0 15.7812L0.514502 15.2355C1.58938 14.0954 2.66221 13.2521 3.902 12.7008C5.14353 12.1488 6.5026 11.9118 8.11903 11.9118C9.73545 11.9118 11.0945 12.1488 12.3361 12.7008C13.5758 13.2521 14.6487 14.0954 15.7235 15.2355L16.2381 15.7812L15.1467 16.8102L14.6321 16.2645C13.646 15.2186 12.7305 14.5178 11.7266 14.0715C10.7245 13.6259 9.58465 13.4118 8.11903 13.4118C6.6534 13.4118 5.51356 13.6259 4.51144 14.0715Z" fill="var(--fill-0, #17191C)"/>
</g>
</svg>
